<?xml version="1.0" standalone="no"?>
<!DOCTYPE svg PUBLIC "-//W3C//DTD SVG 20010904//EN"
 "http://www.w3.org/TR/2001/REC-SVG-20010904/DTD/svg10.dtd">
<svg version="1.0" xmlns="http://www.w3.org/2000/svg"
 width="225.000000pt" height="225.000000pt" viewBox="0 0 225.000000 225.000000"
 preserveAspectRatio="xMidYMid meet">
<metadata>
Created by potrace 1.10, written by Peter Selinger 2001-2011
</metadata>
<g transform="translate(0.000000,225.000000) scale(0.100000,-0.100000)"
fill="#000000" stroke="none">
<path d="M1012 2230 c-479 -48 -875 -406 -974 -880 -26 -122 -27 -310 -4 -433
85 -447 436 -798 883 -883 117 -22 312 -22 423 1 445 91 784 430 875 875 24
117 23 324 -3 445 -119 555 -634 931 -1200 875z m203 -40 c141 -14 254 -44
371 -100 175 -84 333 -221 432 -373 237 -367 237 -817 0 -1184 -207 -319 -615
-514 -992 -474 -319 33 -613 206 -787 462 -61 91 -127 235 -156 346 -23 86
-26 118 -26 258 0 143 3 170 27 260 30 110 94 253 151 340 52 78 164 195 243
253 167 124 344 192 552 212 41 4 77 8 80 8 3 1 50 -3 105 -8z"/>
<path d="M728 1833 c-105 -4 -107 -4 -133 -34 l-25 -31 2 -653 3 -653 24 -26
c24 -25 28 -26 147 -26 177 0 168 -14 174 242 l5 203 175 6 c96 3 195 11 220
18 155 44 280 168 329 325 54 174 5 378 -120 507 -52 54 -110 86 -189 106 -57
15 -405 24 -612 16z m614 -57 c175 -47 288 -213 288 -422 0 -238 -145 -409
-380 -445 -44 -7 -135 -10 -222 -7 l-148 5 0 -229 0 -228 -132 0 -133 0 0 670
0 669 135 4 c252 7 531 -1 592 -17z"/>
<path d="M880 1356 l0 -206 173 0 c195 0 228 9 284 73 87 99 60 242 -57 307
-42 22 -57 24 -222 28 l-178 4 0 -206z m371 141 c122 -51 128 -225 9 -284 -40
-21 -59 -23 -187 -23 l-143 0 0 159 c0 118 3 161 13 165 26 12 272 -1 308 -17z"/>
</g>
</svg>
