<?xml version="1.0" standalone="no"?>
<!DOCTYPE svg PUBLIC "-//W3C//DTD SVG 20010904//EN"
 "http://www.w3.org/TR/2001/REC-SVG-20010904/DTD/svg10.dtd">
<svg version="1.0" xmlns="http://www.w3.org/2000/svg"
 width="300.000000pt" height="176.000000pt" viewBox="0 0 300.000000 176.000000"
 preserveAspectRatio="xMidYMid meet">
<metadata>
Created by potrace 1.10, written by Peter Selinger 2001-2011
</metadata>
<g transform="translate(0.000000,176.000000) scale(0.100000,-0.100000)"
fill="#000000" stroke="none">
<path d="M50 1737 c0 -23 -5 -27 -27 -28 -27 0 -28 0 -5 -10 13 -5 20 -13 17
-19 -3 -5 -2 -10 4 -10 11 0 26 78 17 87 -3 4 -6 -6 -6 -20z"/>
<path d="M151 1738 c-1 -22 4 -28 19 -28 14 0 20 6 19 23 0 12 -3 16 -6 10 -7
-18 -21 -16 -26 5 -3 10 -5 6 -6 -10z"/>
<path d="M251 1738 c-1 -22 4 -28 19 -28 15 0 20 6 19 28 -1 16 -3 20 -6 10
-2 -10 -8 -18 -13 -18 -5 0 -11 8 -13 18 -3 10 -5 6 -6 -10z"/>
<path d="M381 1748 c-1 -21 -17 -24 -24 -5 -3 6 -6 2 -6 -10 -1 -17 5 -23 19
-23 13 0 20 -7 20 -20 0 -15 7 -20 25 -20 18 0 25 5 25 20 0 11 5 21 10 21 6
1 16 2 23 3 6 0 13 12 14 26 1 14 0 18 -3 8 -3 -10 -12 -18 -19 -18 -7 0 -16
8 -18 18 -3 10 -5 6 -6 -10 -1 -23 -6 -28 -25 -28 -19 0 -26 6 -29 28 -2 15
-5 19 -6 10z"/>
<path d="M540 1738 c0 -23 -4 -28 -25 -28 -18 0 -25 -5 -25 -19 0 -25 38 -24
46 1 3 10 14 18 25 18 13 0 19 7 19 23 0 16 -3 18 -9 8 -7 -11 -11 -10 -20 5
-9 17 -10 16 -11 -8z"/>
<path d="M641 1738 c-1 -22 4 -28 19 -28 15 0 20 6 19 28 l0 27 -11 -25 -11
-25 -7 25 -8 25 -1 -27z"/>
<path d="M742 1736 c-1 -15 4 -22 18 -23 16 -1 20 4 19 25 -1 17 -3 21 -6 10
-2 -10 -9 -18 -14 -18 -6 0 -8 4 -4 9 3 5 2 12 -3 15 -4 2 -9 -5 -10 -18z"/>
<path d="M868 1740 c-4 -14 -3 -26 2 -28 6 -2 10 -12 10 -23 0 -14 7 -19 25
-19 18 0 25 5 25 20 0 13 7 20 20 20 11 0 20 7 20 15 0 8 -6 12 -14 9 -8 -3
-16 2 -19 13 -3 12 -5 9 -6 -9 -1 -23 -6 -28 -25 -28 -19 0 -25 6 -28 28 l-3
27 -7 -25z"/>
<path d="M2011 1738 c-1 -21 3 -26 19 -25 14 1 20 8 20 27 -1 23 -1 24 -12 5
-11 -19 -11 -19 -19 0 -7 17 -8 16 -8 -7z"/>
<path d="M2140 1745 c0 -18 -16 -20 -23 -2 -3 6 -6 2 -6 -10 -1 -16 4 -21 19
-20 14 1 20 8 20 24 0 13 -2 23 -5 23 -3 0 -5 -7 -5 -15z"/>
<path d="M2202 1740 c2 -17 9 -25 23 -25 13 0 21 -8 23 -22 5 -31 52 -33 52
-3 0 18 10 25 33 21 4 0 7 11 6 27 0 23 -2 24 -8 7 -8 -19 -8 -19 -19 0 -11
18 -11 18 -12 -7 0 -23 -4 -28 -25 -28 -21 0 -25 5 -25 28 l-1 27 -14 -25
c-13 -24 -16 -24 -19 -1 0 5 -5 13 -9 18 -5 4 -7 -3 -5 -17z"/>
<path d="M2401 1738 c-1 -22 4 -28 19 -28 14 0 20 6 19 23 0 12 -3 16 -6 10
-7 -18 -21 -16 -26 5 -3 10 -5 6 -6 -10z"/>
<path d="M2631 1748 c0 -10 -8 -18 -16 -18 -8 0 -15 -4 -15 -10 0 -5 7 -7 15
-4 10 4 18 -3 25 -20 12 -31 50 -37 50 -7 0 11 5 21 11 23 7 2 7 11 0 28 l-10
25 0 -27 c-1 -23 -6 -28 -25 -28 -19 0 -26 6 -29 28 -2 15 -5 19 -6 10z"/>
<path d="M2791 1738 c-1 -23 -6 -28 -26 -28 -18 0 -25 -5 -25 -20 0 -28 33
-26 45 3 6 13 17 21 28 19 11 -2 17 4 17 18 0 11 -5 20 -11 20 -5 0 -7 -4 -4
-10 3 -5 2 -10 -4 -10 -5 0 -12 8 -14 18 -3 10 -5 6 -6 -10z"/>
<path d="M2891 1737 c-1 -22 3 -28 17 -25 10 2 18 13 19 28 1 15 0 18 -3 8 -3
-10 -9 -18 -14 -18 -5 0 -11 8 -13 18 -3 10 -5 6 -6 -11z"/>
<path d="M1287 1730 c-311 -79 -553 -320 -638 -635 -17 -63 -22 -108 -22 -215
0 -107 5 -152 22 -215 84 -314 326 -556 635 -635 111 -28 321 -28 432 0 86 22
218 81 289 130 164 113 288 290 347 497 33 113 32 333 0 448 -84 295 -304 522
-597 615 -102 33 -356 38 -468 10z m293 -4 c19 -3 78 -16 130 -30 304 -83 530
-308 611 -612 29 -106 31 -289 5 -389 -45 -175 -107 -288 -225 -406 -130 -129
-253 -195 -458 -245 -141 -34 -192 -30 -411 35 -66 20 -184 86 -261 147 -137
109 -248 283 -291 459 -20 78 -22 107 -17 225 8 185 50 316 143 447 128 180
299 294 521 348 137 33 148 34 253 21z"/>
<path d="M1195 1422 c-98 -3 -110 -7 -160 -53 -34 -31 -53 -62 -86 -142 -23
-56 -47 -108 -53 -114 -7 -7 -27 -15 -46 -17 -39 -4 -100 -63 -100 -95 0 -31
19 -74 45 -101 21 -23 24 -35 27 -140 3 -106 6 -120 36 -182 21 -43 32 -82 32
-110 0 -78 41 -124 120 -133 88 -10 139 21 162 99 7 23 17 44 23 48 5 4 143 8
305 8 162 0 300 -4 306 -8 7 -4 17 -25 23 -48 19 -71 78 -107 164 -99 83 9
112 41 123 142 4 32 13 67 20 78 32 49 45 111 45 212 l-1 101 35 42 c68 81 32
172 -73 189 -36 6 -38 9 -77 106 -49 119 -65 145 -113 181 -27 21 -50 29 -91
31 -73 5 -575 9 -666 5z m721 -51 c48 -30 77 -76 124 -198 l43 -113 46 0 c25
0 51 -4 57 -8 16 -10 34 -48 34 -70 0 -27 -31 -63 -56 -64 -19 -2 -20 -6 -16
-110 5 -122 -7 -187 -44 -235 -19 -25 -24 -44 -24 -91 0 -45 -5 -66 -21 -86
-18 -23 -27 -26 -85 -26 -56 0 -68 4 -89 25 -21 20 -25 34 -25 80 l0 55 -360
0 -360 0 0 -57 c0 -82 -22 -103 -107 -103 -55 0 -68 4 -88 25 -22 21 -25 33
-25 91 0 55 -4 71 -24 95 -35 41 -50 125 -43 241 3 54 2 97 -1 96 -4 -1 -17 1
-28 5 -29 10 -48 56 -35 88 13 37 31 47 84 51 l48 3 45 115 c25 63 56 129 69
146 48 63 50 64 470 64 357 0 382 -1 411 -19z"/>
<path d="M1111 1293 c-21 -18 -87 -160 -111 -240 -11 -37 -11 -45 7 -75 10
-18 39 -44 64 -58 l44 -25 353 -3 c411 -4 447 0 504 58 23 23 38 47 38 62 0
50 -76 237 -112 275 l-21 23 -373 0 c-339 0 -374 -2 -393 -17z m767 -42 c28
-29 76 -147 67 -162 -3 -4 -202 -7 -443 -6 l-437 2 -3 22 c-3 23 47 130 73
157 15 14 58 16 367 16 l350 0 26 -29z m92 -230 c0 -35 -35 -66 -92 -81 -24
-7 -170 -10 -401 -8 -359 3 -362 3 -400 26 -36 23 -56 60 -42 81 4 8 155 11
471 11 l464 0 0 -29z"/>
<path d="M1021 798 c-13 -7 -33 -25 -44 -40 -18 -24 -19 -30 -7 -59 9 -21 27
-38 54 -50 51 -23 71 -23 122 0 65 30 76 89 25 135 -27 24 -116 32 -150 14z
m98 -29 c42 -15 53 -55 21 -81 -31 -25 -83 -23 -116 5 -26 23 -26 24 -10 50
24 36 54 44 105 26z"/>
<path d="M1848 794 c-77 -41 -57 -129 35 -155 94 -26 185 50 147 122 -25 45
-126 64 -182 33z m135 -41 c9 -9 17 -22 17 -29 0 -20 -50 -54 -80 -54 -30 0
-80 34 -80 54 0 17 29 42 55 49 28 7 67 -2 88 -20z"/>
<path d="M2500 1733 c0 -16 6 -21 20 -20 13 1 20 8 20 22 0 17 -2 17 -10 5 -9
-13 -11 -13 -20 0 -8 12 -10 11 -10 -7z"/>
<path d="M100 1690 c0 -13 7 -20 20 -20 13 0 20 7 20 20 0 13 -7 20 -20 20
-13 0 -20 -7 -20 -20z"/>
<path d="M200 1690 c0 -13 7 -20 20 -20 13 0 20 7 20 20 0 13 -7 20 -20 20
-13 0 -20 -7 -20 -20z"/>
<path d="M300 1690 c0 -13 7 -20 20 -20 13 0 20 7 20 20 0 13 -7 20 -20 20
-13 0 -20 -7 -20 -20z"/>
<path d="M590 1690 c0 -13 7 -20 20 -20 13 0 20 7 20 20 0 13 -7 20 -20 20
-13 0 -20 -7 -20 -20z"/>
<path d="M690 1690 c0 -13 7 -20 20 -20 13 0 20 7 20 20 0 13 -7 20 -20 20
-13 0 -20 -7 -20 -20z"/>
<path d="M790 1690 c0 -13 7 -20 20 -20 13 0 20 7 20 20 0 13 -7 20 -20 20
-13 0 -20 -7 -20 -20z"/>
<path d="M980 1690 c0 -13 7 -20 20 -20 11 0 20 5 20 11 0 5 -6 7 -12 3 -9 -5
-9 -2 1 9 12 15 11 17 -8 17 -14 0 -21 -6 -21 -20z"/>
<path d="M1960 1700 c0 -5 8 -10 18 -10 14 0 15 -2 2 -10 -13 -8 -12 -10 3
-10 10 0 17 8 17 20 0 13 -7 20 -20 20 -11 0 -20 -4 -20 -10z"/>
<path d="M2060 1690 c0 -13 7 -20 20 -20 13 0 20 7 20 20 0 13 -7 20 -20 20
-13 0 -20 -7 -20 -20z"/>
<path d="M2160 1690 c0 -13 7 -20 20 -20 13 0 20 7 20 20 0 13 -7 20 -20 20
-13 0 -20 -7 -20 -20z"/>
<path d="M2350 1690 c0 -13 7 -20 20 -20 13 0 20 7 20 20 0 13 -7 20 -20 20
-13 0 -20 -7 -20 -20z"/>
<path d="M2450 1690 c0 -13 7 -20 20 -20 13 0 20 7 20 20 0 13 -7 20 -20 20
-13 0 -20 -7 -20 -20z"/>
<path d="M2550 1690 c0 -13 7 -20 20 -20 13 0 20 7 20 20 0 13 -7 20 -20 20
-13 0 -20 -7 -20 -20z"/>
<path d="M2840 1690 c0 -13 7 -20 20 -20 13 0 20 7 20 20 0 13 -7 20 -20 20
-13 0 -20 -7 -20 -20z"/>
<path d="M2940 1690 c0 -13 7 -20 20 -20 13 0 20 7 20 20 0 13 -7 20 -20 20
-13 0 -20 -7 -20 -20z"/>
<path d="M50 1640 c0 -13 7 -20 19 -20 10 0 21 9 24 20 4 16 0 20 -19 20 -17
0 -24 -6 -24 -20z"/>
<path d="M150 1640 c0 -13 7 -20 20 -20 13 0 20 7 20 20 0 13 -7 20 -20 20
-13 0 -20 -7 -20 -20z"/>
<path d="M250 1640 c0 -13 7 -20 20 -20 13 0 20 7 20 20 0 13 -7 20 -20 20
-13 0 -20 -7 -20 -20z"/>
<path d="M350 1640 c0 -13 7 -20 20 -20 13 0 20 7 20 20 0 13 -7 20 -20 20
-13 0 -20 -7 -20 -20z"/>
<path d="M440 1640 c0 -15 7 -20 25 -20 18 0 25 5 25 20 0 15 -7 20 -25 20
-18 0 -25 -5 -25 -20z"/>
<path d="M540 1640 c0 -13 7 -20 20 -20 13 0 20 7 20 20 0 13 -7 20 -20 20
-13 0 -20 -7 -20 -20z"/>
<path d="M640 1640 c0 -13 7 -20 20 -20 13 0 20 7 20 20 0 13 -7 20 -20 20
-13 0 -20 -7 -20 -20z"/>
<path d="M740 1640 c0 -13 7 -20 20 -20 13 0 20 7 20 20 0 13 -7 20 -20 20
-13 0 -20 -7 -20 -20z"/>
<path d="M830 1640 c0 -15 7 -20 25 -20 18 0 25 5 25 20 0 15 -7 20 -25 20
-18 0 -25 -5 -25 -20z"/>
<path d="M2110 1640 c0 -13 7 -20 20 -20 13 0 20 7 20 20 0 13 -7 20 -20 20
-13 0 -20 -7 -20 -20z"/>
<path d="M2200 1640 c0 -15 7 -20 25 -20 18 0 25 5 25 20 0 15 -7 20 -25 20
-18 0 -25 -5 -25 -20z"/>
<path d="M2300 1640 c0 -13 7 -20 20 -20 13 0 20 7 20 20 0 13 -7 20 -20 20
-13 0 -20 -7 -20 -20z"/>
<path d="M2400 1640 c0 -13 7 -20 20 -20 13 0 20 7 20 20 0 13 -7 20 -20 20
-13 0 -20 -7 -20 -20z"/>
<path d="M2500 1640 c0 -13 7 -20 20 -20 13 0 20 7 20 20 0 13 -7 20 -20 20
-13 0 -20 -7 -20 -20z"/>
<path d="M2600 1640 c0 -13 7 -20 20 -20 13 0 20 7 20 20 0 13 -7 20 -20 20
-13 0 -20 -7 -20 -20z"/>
<path d="M2690 1640 c0 -15 7 -20 25 -20 18 0 25 5 25 20 0 15 -7 20 -25 20
-18 0 -25 -5 -25 -20z"/>
<path d="M2790 1640 c0 -13 7 -20 20 -20 13 0 20 7 20 20 0 13 -7 20 -20 20
-13 0 -20 -7 -20 -20z"/>
<path d="M2890 1640 c0 -13 7 -20 20 -20 13 0 20 7 20 20 0 13 -7 20 -20 20
-13 0 -20 -7 -20 -20z"/>
<path d="M26 1599 c3 -6 0 -15 -7 -20 -10 -6 -8 -9 9 -9 15 0 22 6 22 20 0 11
-7 20 -16 20 -8 0 -12 -5 -8 -11z"/>
<path d="M100 1590 c0 -13 7 -20 20 -20 13 0 20 7 20 20 0 13 -7 20 -20 20
-13 0 -20 -7 -20 -20z"/>
<path d="M200 1590 c0 -13 7 -20 20 -20 13 0 20 7 20 20 0 13 -7 20 -20 20
-13 0 -20 -7 -20 -20z"/>
<path d="M300 1590 c0 -13 7 -20 20 -20 13 0 20 7 20 20 0 13 -7 20 -20 20
-13 0 -20 -7 -20 -20z"/>
<path d="M390 1590 c0 -15 7 -20 25 -20 18 0 25 5 25 20 0 15 -7 20 -25 20
-18 0 -25 -5 -25 -20z"/>
<path d="M490 1590 c0 -24 35 -28 44 -4 9 23 8 24 -19 24 -18 0 -25 -5 -25
-20z"/>
<path d="M590 1590 c0 -13 7 -20 20 -20 13 0 20 7 20 20 0 13 -7 20 -20 20
-13 0 -20 -7 -20 -20z"/>
<path d="M690 1590 c0 -13 7 -20 20 -20 13 0 20 7 20 20 0 13 -7 20 -20 20
-13 0 -20 -7 -20 -20z"/>
<path d="M790 1590 c0 -13 7 -20 20 -20 13 0 20 7 20 20 0 13 -7 20 -20 20
-13 0 -20 -7 -20 -20z"/>
<path d="M2160 1590 c0 -13 7 -20 20 -20 13 0 20 7 20 20 0 13 -7 20 -20 20
-13 0 -20 -7 -20 -20z"/>
<path d="M2250 1590 c0 -15 7 -20 25 -20 18 0 25 5 25 20 0 15 -7 20 -25 20
-18 0 -25 -5 -25 -20z"/>
<path d="M2350 1590 c0 -13 7 -20 20 -20 13 0 20 7 20 20 0 13 -7 20 -20 20
-13 0 -20 -7 -20 -20z"/>
<path d="M2450 1590 c0 -13 7 -20 20 -20 13 0 20 7 20 20 0 13 -7 20 -20 20
-13 0 -20 -7 -20 -20z"/>
<path d="M2550 1590 c0 -13 7 -20 20 -20 13 0 20 7 20 20 0 13 -7 20 -20 20
-13 0 -20 -7 -20 -20z"/>
<path d="M2640 1590 c0 -15 7 -20 25 -20 18 0 25 5 25 20 0 15 -7 20 -25 20
-18 0 -25 -5 -25 -20z"/>
<path d="M2740 1590 c0 -14 7 -20 23 -20 16 0 23 6 23 20 0 14 -7 20 -23 20
-16 0 -23 -6 -23 -20z"/>
<path d="M2840 1590 c0 -13 7 -20 20 -20 13 0 20 7 20 20 0 13 -7 20 -20 20
-13 0 -20 -7 -20 -20z"/>
<path d="M2940 1590 c0 -13 7 -20 20 -20 13 0 20 7 20 20 0 13 -7 20 -20 20
-13 0 -20 -7 -20 -20z"/>
<path d="M50 1540 c0 -13 7 -20 20 -20 13 0 20 7 20 20 0 13 -7 20 -20 20 -13
0 -20 -7 -20 -20z"/>
<path d="M150 1540 c0 -13 7 -20 20 -20 13 0 20 7 20 20 0 13 -7 20 -20 20
-13 0 -20 -7 -20 -20z"/>
<path d="M250 1540 c0 -13 7 -20 20 -20 13 0 20 7 20 20 0 13 -7 20 -20 20
-13 0 -20 -7 -20 -20z"/>
<path d="M350 1540 c0 -13 7 -20 20 -20 13 0 20 7 20 20 0 13 -7 20 -20 20
-13 0 -20 -7 -20 -20z"/>
<path d="M440 1540 c0 -15 7 -20 25 -20 18 0 25 5 25 20 0 15 -7 20 -25 20
-18 0 -25 -5 -25 -20z"/>
<path d="M540 1540 c0 -13 7 -20 20 -20 13 0 20 7 20 20 0 13 -7 20 -20 20
-13 0 -20 -7 -20 -20z"/>
<path d="M640 1540 c0 -13 7 -20 20 -20 13 0 20 7 20 20 0 13 -7 20 -20 20
-13 0 -20 -7 -20 -20z"/>
<path d="M740 1540 c0 -13 7 -20 20 -20 13 0 20 7 20 20 0 13 -7 20 -20 20
-13 0 -20 -7 -20 -20z"/>
<path d="M2200 1540 c0 -15 7 -20 25 -20 18 0 25 5 25 20 0 15 -7 20 -25 20
-18 0 -25 -5 -25 -20z"/>
<path d="M2300 1540 c0 -13 7 -20 20 -20 13 0 20 7 20 20 0 13 -7 20 -20 20
-13 0 -20 -7 -20 -20z"/>
<path d="M2400 1540 c0 -13 7 -20 20 -20 13 0 20 7 20 20 0 13 -7 20 -20 20
-13 0 -20 -7 -20 -20z"/>
<path d="M2500 1540 c0 -13 7 -20 20 -20 13 0 20 7 20 20 0 13 -7 20 -20 20
-13 0 -20 -7 -20 -20z"/>
<path d="M2597 1540 c3 -11 14 -20 24 -20 12 0 19 7 19 20 0 14 -7 20 -24 20
-19 0 -23 -4 -19 -20z"/>
<path d="M2690 1540 c0 -15 7 -20 25 -20 18 0 25 5 25 20 0 15 -7 20 -25 20
-18 0 -25 -5 -25 -20z"/>
<path d="M2790 1540 c0 -13 7 -20 20 -20 13 0 20 7 20 20 0 13 -7 20 -20 20
-13 0 -20 -7 -20 -20z"/>
<path d="M2890 1540 c0 -13 7 -20 20 -20 13 0 20 7 20 20 0 13 -7 20 -20 20
-13 0 -20 -7 -20 -20z"/>
<path d="M100 1490 c0 -13 7 -20 20 -20 13 0 20 7 20 20 0 13 -7 20 -20 20
-13 0 -20 -7 -20 -20z"/>
<path d="M200 1490 c0 -13 7 -20 20 -20 13 0 20 7 20 20 0 13 -7 20 -20 20
-13 0 -20 -7 -20 -20z"/>
<path d="M300 1490 c0 -13 7 -20 20 -20 13 0 20 7 20 20 0 13 -7 20 -20 20
-13 0 -20 -7 -20 -20z"/>
<path d="M390 1490 c0 -15 7 -20 25 -20 18 0 25 5 25 20 0 15 -7 20 -25 20
-18 0 -25 -5 -25 -20z"/>
<path d="M490 1490 c0 -14 7 -20 23 -20 16 0 23 6 23 20 0 14 -7 20 -23 20
-16 0 -23 -6 -23 -20z"/>
<path d="M590 1490 c0 -13 7 -20 20 -20 13 0 20 7 20 20 0 13 -7 20 -20 20
-13 0 -20 -7 -20 -20z"/>
<path d="M690 1490 c0 -13 7 -20 20 -20 13 0 20 7 20 20 0 13 -7 20 -20 20
-13 0 -20 -7 -20 -20z"/>
<path d="M2250 1490 c0 -15 7 -20 25 -20 18 0 25 5 25 20 0 15 -7 20 -25 20
-18 0 -25 -5 -25 -20z"/>
<path d="M2350 1490 c0 -13 7 -20 20 -20 13 0 20 7 20 20 0 13 -7 20 -20 20
-13 0 -20 -7 -20 -20z"/>
<path d="M2450 1490 c0 -13 7 -20 20 -20 13 0 20 7 20 20 0 13 -7 20 -20 20
-13 0 -20 -7 -20 -20z"/>
<path d="M2550 1490 c0 -13 7 -20 20 -20 13 0 20 7 20 20 0 13 -7 20 -20 20
-13 0 -20 -7 -20 -20z"/>
<path d="M2640 1490 c0 -15 7 -20 25 -20 18 0 25 5 25 20 0 15 -7 20 -25 20
-18 0 -25 -5 -25 -20z"/>
<path d="M2740 1490 c0 -14 7 -20 24 -20 19 0 23 4 19 20 -3 11 -14 20 -24 20
-12 0 -19 -7 -19 -20z"/>
<path d="M2840 1490 c0 -13 7 -20 20 -20 13 0 20 7 20 20 0 13 -7 20 -20 20
-13 0 -20 -7 -20 -20z"/>
<path d="M2940 1490 c0 -13 7 -20 20 -20 13 0 20 7 20 20 0 13 -7 20 -20 20
-13 0 -20 -7 -20 -20z"/>
<path d="M50 1440 c0 -13 7 -20 20 -20 13 0 20 7 20 20 0 13 -7 20 -20 20 -13
0 -20 -7 -20 -20z"/>
<path d="M150 1440 c0 -13 7 -20 20 -20 13 0 20 7 20 20 0 13 -7 20 -20 20
-13 0 -20 -7 -20 -20z"/>
<path d="M250 1440 c0 -13 7 -20 20 -20 13 0 20 7 20 20 0 13 -7 20 -20 20
-13 0 -20 -7 -20 -20z"/>
<path d="M350 1440 c0 -13 7 -20 20 -20 13 0 20 7 20 20 0 13 -7 20 -20 20
-13 0 -20 -7 -20 -20z"/>
<path d="M440 1440 c0 -11 -4 -21 -10 -21 -5 -1 -16 -2 -22 -3 -7 0 -14 -11
-16 -23 -2 -15 -10 -23 -23 -23 -14 0 -19 -7 -19 -25 0 -18 5 -25 20 -25 13 0
20 -7 20 -20 0 -15 7 -20 25 -20 18 0 25 5 25 20 0 15 7 20 25 20 18 0 25 -5
25 -20 0 -13 7 -20 19 -20 10 0 21 9 24 20 3 12 14 20 26 20 31 0 30 47 -1 52
-13 2 -24 12 -28 26 -3 13 -8 23 -12 23 -24 -2 -28 1 -28 19 0 15 -7 20 -25
20 -18 0 -25 -5 -25 -20z m50 -45 c0 -20 -5 -25 -25 -25 -20 0 -25 5 -25 25 0
20 5 25 25 25 20 0 25 -5 25 -25z m-50 -50 c0 -20 -5 -25 -25 -25 -20 0 -25 5
-25 25 0 20 5 25 25 25 20 0 25 -5 25 -25z m100 0 c0 -20 -5 -25 -25 -25 -20
0 -25 5 -25 25 0 20 5 25 25 25 20 0 25 -5 25 -25z"/>
<path d="M540 1440 c0 -13 7 -20 20 -20 13 0 20 7 20 20 0 13 -7 20 -20 20
-13 0 -20 -7 -20 -20z"/>
<path d="M640 1440 c0 -13 7 -20 20 -20 13 0 20 7 20 20 0 13 -7 20 -20 20
-13 0 -20 -7 -20 -20z"/>
<path d="M2300 1440 c0 -13 7 -20 20 -20 13 0 20 7 20 20 0 13 -7 20 -20 20
-13 0 -20 -7 -20 -20z"/>
<path d="M2400 1440 c0 -13 7 -20 20 -20 13 0 20 7 20 20 0 13 -7 20 -20 20
-13 0 -20 -7 -20 -20z"/>
<path d="M2500 1440 c0 -13 7 -20 20 -20 13 0 20 7 20 20 0 13 -7 20 -20 20
-13 0 -20 -7 -20 -20z"/>
<path d="M2600 1440 c0 -13 7 -20 20 -20 13 0 20 7 20 20 0 13 -7 20 -20 20
-13 0 -20 -7 -20 -20z"/>
<path d="M2690 1440 c0 -11 -4 -21 -10 -21 -5 -1 -16 -2 -22 -3 -7 0 -14 -11
-16 -23 -2 -15 -10 -23 -23 -23 -29 0 -26 -48 4 -52 15 -2 21 -9 19 -20 -2
-13 4 -18 23 -18 18 0 25 5 25 20 0 15 7 20 25 20 18 0 25 -5 25 -20 0 -13 7
-20 19 -20 10 0 21 9 24 20 3 12 14 20 26 20 16 0 21 6 21 25 0 18 -5 25 -20
25 -13 0 -22 9 -26 25 -4 16 -13 25 -25 25 -12 0 -19 7 -19 20 0 15 -7 20 -25
20 -18 0 -25 -5 -25 -20z m50 -45 c0 -20 -5 -25 -25 -25 -20 0 -25 5 -25 25 0
20 5 25 25 25 20 0 25 -5 25 -25z m-50 -50 c0 -20 -5 -25 -25 -25 -20 0 -25 5
-25 25 0 20 5 25 25 25 20 0 25 -5 25 -25z m100 0 c0 -20 -5 -25 -25 -25 -20
0 -25 5 -25 25 0 20 5 25 25 25 20 0 25 -5 25 -25z"/>
<path d="M2790 1440 c0 -13 7 -20 20 -20 13 0 20 7 20 20 0 13 -7 20 -20 20
-13 0 -20 -7 -20 -20z"/>
<path d="M2890 1440 c0 -13 7 -20 20 -20 13 0 20 7 20 20 0 13 -7 20 -20 20
-13 0 -20 -7 -20 -20z"/>
<path d="M100 1396 c0 -20 5 -26 21 -26 15 0 20 5 17 22 -5 34 -38 37 -38 4z"/>
<path d="M200 1395 c0 -18 5 -25 20 -25 15 0 20 7 20 25 0 18 -5 25 -20 25
-15 0 -20 -7 -20 -25z"/>
<path d="M300 1395 c0 -18 5 -25 20 -25 15 0 20 7 20 25 0 18 -5 25 -20 25
-15 0 -20 -7 -20 -25z"/>
<path d="M590 1395 c0 -18 5 -25 20 -25 15 0 20 7 20 25 0 18 -5 25 -20 25
-15 0 -20 -7 -20 -25z"/>
<path d="M690 1392 c0 -17 5 -23 18 -20 26 5 28 44 2 44 -14 0 -20 -7 -20 -24z"/>
<path d="M2350 1395 c0 -18 5 -25 20 -25 15 0 20 7 20 25 0 18 -5 25 -20 25
-15 0 -20 -7 -20 -25z"/>
<path d="M2450 1395 c0 -18 5 -25 20 -25 15 0 20 7 20 25 0 18 -5 25 -20 25
-15 0 -20 -7 -20 -25z"/>
<path d="M2550 1395 c0 -18 5 -25 20 -25 15 0 20 7 20 25 0 18 -5 25 -20 25
-15 0 -20 -7 -20 -25z"/>
<path d="M2840 1395 c0 -18 5 -25 20 -25 15 0 20 7 20 25 0 18 -5 25 -20 25
-15 0 -20 -7 -20 -25z"/>
<path d="M2940 1395 c0 -18 5 -25 20 -25 15 0 20 7 20 25 0 18 -5 25 -20 25
-15 0 -20 -7 -20 -25z"/>
<path d="M30 1396 c0 -8 -8 -17 -17 -19 -11 -3 -7 -5 10 -6 22 -1 27 -6 27
-26 0 -19 -5 -25 -22 -25 -21 -1 -21 -2 -5 -11 9 -6 15 -14 12 -20 -4 -5 -1
-9 4 -9 6 0 11 9 11 20 0 13 7 20 20 20 15 0 20 7 20 25 0 18 -5 25 -20 25
-13 0 -20 7 -20 20 0 11 -4 20 -10 20 -5 0 -10 -6 -10 -14z"/>
<path d="M2280 1395 c0 -9 14 -29 30 -45 l30 -29 0 24 c0 18 -5 25 -20 25 -13
0 -20 7 -20 20 0 11 -4 20 -10 20 -5 0 -10 -7 -10 -15z"/>
<path d="M150 1345 c0 -18 5 -25 20 -25 15 0 20 7 20 25 0 18 -5 25 -20 25
-15 0 -20 -7 -20 -25z"/>
<path d="M250 1345 c0 -18 5 -25 20 -25 15 0 20 7 20 25 0 18 -5 25 -20 25
-15 0 -20 -7 -20 -25z"/>
<path d="M640 1345 c0 -18 5 -25 20 -25 15 0 20 7 20 25 0 18 -5 25 -20 25
-15 0 -20 -7 -20 -25z"/>
<path d="M2400 1345 c0 -18 5 -25 20 -25 15 0 20 7 20 25 0 18 -5 25 -20 25
-15 0 -20 -7 -20 -25z"/>
<path d="M2500 1345 c0 -18 5 -25 20 -25 15 0 20 7 20 25 0 18 -5 25 -20 25
-15 0 -20 -7 -20 -25z"/>
<path d="M2890 1345 c0 -18 5 -25 20 -25 15 0 20 7 20 25 0 18 -5 25 -20 25
-15 0 -20 -7 -20 -25z"/>
<path d="M100 1300 c0 -13 7 -20 20 -20 13 0 20 7 20 20 0 13 -7 20 -20 20
-13 0 -20 -7 -20 -20z"/>
<path d="M200 1300 c0 -13 7 -20 20 -20 13 0 20 7 20 20 0 13 -7 20 -20 20
-13 0 -20 -7 -20 -20z"/>
<path d="M300 1300 c0 -13 7 -20 20 -20 13 0 20 7 20 20 0 13 -7 20 -20 20
-13 0 -20 -7 -20 -20z"/>
<path d="M590 1300 c0 -13 7 -20 20 -20 13 0 20 7 20 20 0 13 -7 20 -20 20
-13 0 -20 -7 -20 -20z"/>
<path d="M2350 1300 c0 -13 7 -20 20 -20 13 0 20 7 20 20 0 13 -7 20 -20 20
-13 0 -20 -7 -20 -20z"/>
<path d="M2450 1300 c0 -13 7 -20 20 -20 13 0 20 7 20 20 0 13 -7 20 -20 20
-13 0 -20 -7 -20 -20z"/>
<path d="M2550 1300 c0 -13 7 -20 20 -20 13 0 20 7 20 20 0 13 -7 20 -20 20
-13 0 -20 -7 -20 -20z"/>
<path d="M2840 1300 c0 -13 7 -20 20 -20 13 0 20 7 20 20 0 13 -7 20 -20 20
-13 0 -20 -7 -20 -20z"/>
<path d="M2940 1300 c0 -13 7 -20 20 -20 13 0 20 7 20 20 0 13 -7 20 -20 20
-13 0 -20 -7 -20 -20z"/>
<path d="M50 1250 c0 -13 7 -20 20 -20 13 0 20 7 20 20 0 13 -7 20 -20 20 -13
0 -20 -7 -20 -20z"/>
<path d="M150 1250 c0 -13 7 -20 20 -20 13 0 20 7 20 20 0 13 -7 20 -20 20
-13 0 -20 -7 -20 -20z"/>
<path d="M250 1250 c0 -13 7 -20 20 -20 13 0 20 7 20 20 0 13 -7 20 -20 20
-13 0 -20 -7 -20 -20z"/>
<path d="M350 1250 c0 -13 7 -20 20 -20 13 0 20 7 20 20 0 13 -7 20 -20 20
-13 0 -20 -7 -20 -20z"/>
<path d="M440 1250 c0 -15 7 -20 25 -20 18 0 25 5 25 20 0 15 -7 20 -25 20
-18 0 -25 -5 -25 -20z"/>
<path d="M540 1251 c0 -14 6 -19 20 -18 12 1 20 8 20 19 0 11 -7 18 -20 18
-13 0 -20 -7 -20 -19z"/>
<path d="M2400 1250 c0 -13 7 -20 20 -20 13 0 20 7 20 20 0 13 -7 20 -20 20
-13 0 -20 -7 -20 -20z"/>
<path d="M2500 1250 c0 -13 7 -20 20 -20 13 0 20 7 20 20 0 13 -7 20 -20 20
-13 0 -20 -7 -20 -20z"/>
<path d="M2600 1250 c0 -13 7 -20 20 -20 13 0 20 7 20 20 0 13 -7 20 -20 20
-13 0 -20 -7 -20 -20z"/>
<path d="M2690 1250 c0 -15 7 -20 25 -20 18 0 25 5 25 20 0 15 -7 20 -25 20
-18 0 -25 -5 -25 -20z"/>
<path d="M2790 1250 c0 -13 7 -20 20 -20 13 0 20 7 20 20 0 13 -7 20 -20 20
-13 0 -20 -7 -20 -20z"/>
<path d="M2890 1250 c0 -13 7 -20 20 -20 13 0 20 7 20 20 0 13 -7 20 -20 20
-13 0 -20 -7 -20 -20z"/>
<path d="M19 1211 c7 -5 10 -14 7 -20 -4 -6 0 -11 8 -11 9 0 16 9 16 20 0 14
-7 20 -22 20 -17 0 -19 -3 -9 -9z"/>
<path d="M100 1200 c0 -13 7 -20 20 -20 13 0 20 7 20 20 0 13 -7 20 -20 20
-13 0 -20 -7 -20 -20z"/>
<path d="M200 1200 c0 -13 7 -20 20 -20 13 0 20 7 20 20 0 13 -7 20 -20 20
-13 0 -20 -7 -20 -20z"/>
<path d="M300 1200 c0 -13 7 -20 20 -20 13 0 20 7 20 20 0 13 -7 20 -20 20
-13 0 -20 -7 -20 -20z"/>
<path d="M390 1200 c0 -15 7 -20 25 -20 18 0 25 5 25 20 0 15 -7 20 -25 20
-18 0 -25 -5 -25 -20z"/>
<path d="M490 1200 c0 -13 7 -20 19 -20 10 0 21 9 24 20 4 16 0 20 -19 20 -17
0 -24 -6 -24 -20z"/>
<path d="M590 1200 c0 -13 7 -20 20 -20 13 0 20 7 20 20 0 13 -7 20 -20 20
-13 0 -20 -7 -20 -20z"/>
<path d="M2450 1200 c0 -13 7 -20 20 -20 13 0 20 7 20 20 0 13 -7 20 -20 20
-13 0 -20 -7 -20 -20z"/>
<path d="M2550 1200 c0 -13 7 -20 20 -20 13 0 20 7 20 20 0 13 -7 20 -20 20
-13 0 -20 -7 -20 -20z"/>
<path d="M2640 1200 c0 -15 7 -20 25 -20 18 0 25 5 25 20 0 15 -7 20 -25 20
-18 0 -25 -5 -25 -20z"/>
<path d="M2740 1200 c0 -13 7 -20 19 -20 10 0 21 9 24 20 4 16 0 20 -19 20
-17 0 -24 -6 -24 -20z"/>
<path d="M2840 1200 c0 -13 7 -20 20 -20 13 0 20 7 20 20 0 13 -7 20 -20 20
-13 0 -20 -7 -20 -20z"/>
<path d="M2940 1200 c0 -13 7 -20 20 -20 13 0 20 7 20 20 0 13 -7 20 -20 20
-13 0 -20 -7 -20 -20z"/>
<path d="M50 1150 c0 -13 7 -20 20 -20 13 0 20 7 20 20 0 13 -7 20 -20 20 -13
0 -20 -7 -20 -20z"/>
<path d="M150 1150 c0 -13 7 -20 20 -20 13 0 20 7 20 20 0 13 -7 20 -20 20
-13 0 -20 -7 -20 -20z"/>
<path d="M250 1150 c0 -13 7 -20 20 -20 13 0 20 7 20 20 0 13 -7 20 -20 20
-13 0 -20 -7 -20 -20z"/>
<path d="M350 1150 c0 -13 7 -20 20 -20 13 0 20 7 20 20 0 13 -7 20 -20 20
-13 0 -20 -7 -20 -20z"/>
<path d="M440 1150 c0 -15 7 -20 25 -20 18 0 25 5 25 20 0 15 -7 20 -25 20
-18 0 -25 -5 -25 -20z"/>
<path d="M540 1150 c0 -13 7 -20 20 -20 13 0 20 7 20 20 0 13 -7 20 -20 20
-13 0 -20 -7 -20 -20z"/>
<path d="M2400 1150 c0 -13 7 -20 20 -20 13 0 20 7 20 20 0 13 -7 20 -20 20
-13 0 -20 -7 -20 -20z"/>
<path d="M2500 1150 c0 -13 7 -20 20 -20 13 0 20 7 20 20 0 13 -7 20 -20 20
-13 0 -20 -7 -20 -20z"/>
<path d="M2600 1150 c0 -13 7 -20 20 -20 13 0 20 7 20 20 0 13 -7 20 -20 20
-13 0 -20 -7 -20 -20z"/>
<path d="M2690 1150 c0 -15 7 -20 25 -20 18 0 25 5 25 20 0 15 -7 20 -25 20
-18 0 -25 -5 -25 -20z"/>
<path d="M2790 1150 c0 -13 7 -20 20 -20 13 0 20 7 20 20 0 13 -7 20 -20 20
-13 0 -20 -7 -20 -20z"/>
<path d="M2890 1150 c0 -13 7 -20 20 -20 13 0 20 7 20 20 0 13 -7 20 -20 20
-13 0 -20 -7 -20 -20z"/>
<path d="M100 1100 c0 -13 7 -20 20 -20 13 0 20 7 20 20 0 13 -7 20 -20 20
-13 0 -20 -7 -20 -20z"/>
<path d="M200 1100 c0 -13 7 -20 20 -20 13 0 20 7 20 20 0 13 -7 20 -20 20
-13 0 -20 -7 -20 -20z"/>
<path d="M300 1100 c0 -13 7 -20 20 -20 13 0 20 7 20 20 0 13 -7 20 -20 20
-13 0 -20 -7 -20 -20z"/>
<path d="M390 1100 c0 -15 7 -20 25 -20 18 0 25 5 25 20 0 15 -7 20 -25 20
-18 0 -25 -5 -25 -20z"/>
<path d="M490 1100 c0 -14 7 -20 23 -20 16 0 23 6 23 20 0 14 -7 20 -23 20
-16 0 -23 -6 -23 -20z"/>
<path d="M2450 1100 c0 -13 7 -20 20 -20 13 0 20 7 20 20 0 13 -7 20 -20 20
-13 0 -20 -7 -20 -20z"/>
<path d="M2550 1100 c0 -13 7 -20 20 -20 13 0 20 7 20 20 0 13 -7 20 -20 20
-13 0 -20 -7 -20 -20z"/>
<path d="M2650 1110 c10 -6 11 -10 3 -10 -7 0 -13 -4 -13 -10 0 -5 11 -10 25
-10 18 0 25 5 25 20 0 15 -7 20 -27 20 -22 0 -25 -2 -13 -10z"/>
<path d="M2740 1100 c0 -14 7 -20 24 -20 19 0 23 4 19 20 -3 11 -14 20 -24 20
-12 0 -19 -7 -19 -20z"/>
<path d="M2840 1100 c0 -13 7 -20 20 -20 13 0 20 7 20 20 0 13 -7 20 -20 20
-13 0 -20 -7 -20 -20z"/>
<path d="M2940 1100 c0 -13 7 -20 20 -20 13 0 20 7 20 20 0 13 -7 20 -20 20
-13 0 -20 -7 -20 -20z"/>
<path d="M50 1050 c0 -13 7 -20 20 -20 11 0 20 5 20 11 0 6 -7 9 -15 5 -8 -3
-15 -1 -15 4 0 5 8 11 18 13 13 4 11 5 -5 6 -17 1 -23 -5 -23 -19z"/>
<path d="M150 1050 c0 -13 7 -20 20 -20 13 0 20 7 20 20 0 13 -7 20 -20 20
-13 0 -20 -7 -20 -20z"/>
<path d="M250 1050 c0 -13 7 -20 20 -20 13 0 20 7 20 20 0 13 -7 20 -20 20
-13 0 -20 -7 -20 -20z"/>
<path d="M350 1050 c0 -13 7 -20 20 -20 13 0 20 7 20 20 0 13 -7 20 -20 20
-13 0 -20 -7 -20 -20z"/>
<path d="M440 1050 c0 -13 -9 -22 -25 -26 -16 -4 -25 -13 -25 -25 0 -12 -7
-19 -20 -19 -15 0 -20 -7 -20 -25 0 -18 5 -25 20 -25 13 0 20 -7 20 -19 0 -11
6 -21 13 -24 20 -7 37 4 37 24 0 14 7 19 25 19 18 0 25 -5 25 -19 0 -10 9 -21
20 -24 16 -4 20 0 20 19 0 17 -6 24 -20 24 -15 0 -20 7 -20 25 0 18 5 25 20
25 14 0 20 7 20 24 0 19 -4 23 -20 19 -11 -3 -20 -14 -20 -24 0 -14 -7 -19
-25 -19 -20 0 -25 5 -25 25 0 19 5 25 23 25 16 0 23 6 24 20 1 15 -4 20 -23
20 -17 0 -24 -5 -24 -20z m0 -95 c0 -20 -5 -25 -25 -25 -20 0 -25 5 -25 25 0
20 5 25 25 25 20 0 25 -5 25 -25z"/>
<path d="M540 1050 c0 -13 7 -20 20 -20 13 0 20 7 20 20 0 13 -7 20 -20 20
-13 0 -20 -7 -20 -20z"/>
<path d="M2500 1050 c0 -13 7 -20 20 -20 13 0 20 7 20 20 0 13 -7 20 -20 20
-13 0 -20 -7 -20 -20z"/>
<path d="M2597 1050 c-4 -16 0 -20 19 -20 17 0 24 6 24 20 0 13 -7 20 -19 20
-10 0 -21 -9 -24 -20z"/>
<path d="M2688 1048 c-2 -15 -11 -24 -25 -26 -15 -2 -23 -10 -23 -23 0 -12 -7
-19 -20 -19 -15 0 -20 -7 -20 -25 0 -18 5 -25 20 -25 13 0 20 -7 20 -19 0 -10
9 -21 19 -24 24 -6 31 0 31 25 0 13 7 18 25 18 20 0 25 -5 25 -25 0 -20 -5
-25 -25 -25 -18 0 -25 -5 -25 -20 0 -15 7 -20 25 -20 19 0 25 5 25 21 0 12 8
23 19 26 11 3 21 13 24 24 3 11 14 19 26 19 16 0 21 6 21 25 0 19 -5 25 -21
25 -12 0 -23 8 -26 20 -3 11 -14 20 -24 20 -12 0 -19 -7 -19 -20 0 -15 -7 -20
-25 -20 -20 0 -25 5 -25 25 0 20 5 25 25 25 18 0 25 5 25 20 0 30 -47 28 -52
-2z m2 -93 c0 -20 -5 -25 -25 -25 -20 0 -25 5 -25 25 0 20 5 25 25 25 20 0 25
-5 25 -25z m100 0 c0 -20 -5 -25 -25 -25 -20 0 -25 5 -25 25 0 20 5 25 25 25
20 0 25 -5 25 -25z"/>
<path d="M2790 1050 c0 -13 7 -20 20 -20 13 0 20 7 20 20 0 13 -7 20 -20 20
-13 0 -20 -7 -20 -20z"/>
<path d="M2890 1050 c0 -13 7 -20 20 -20 13 0 20 7 20 20 0 13 -7 20 -20 20
-13 0 -20 -7 -20 -20z"/>
<path d="M206 1023 c-14 -15 -5 -43 14 -43 13 0 20 7 20 19 0 19 -23 35 -34
24z"/>
<path d="M318 1023 c-25 -6 -23 -43 2 -43 15 0 20 7 20 25 0 14 -1 24 -2 24
-2 -1 -11 -3 -20 -6z"/>
<path d="M2840 1003 c0 -16 6 -23 20 -23 14 0 20 7 20 23 0 16 -6 23 -20 23
-14 0 -20 -7 -20 -23z"/>
<path d="M33 1006 c4 -10 -2 -16 -16 -19 -18 -4 -17 -5 6 -6 22 -1 27 -6 27
-26 0 -20 -5 -25 -27 -26 -17 -1 -21 -3 -10 -6 9 -2 17 -11 17 -19 0 -8 5 -14
10 -14 6 0 10 9 10 20 0 13 7 20 20 20 15 0 20 7 20 25 0 18 -5 25 -20 25 -13
0 -20 7 -20 20 0 11 -5 20 -11 20 -6 0 -9 -6 -6 -14z"/>
<path d="M100 1000 c0 -13 7 -20 20 -20 13 0 20 7 20 20 0 13 -7 20 -20 20
-13 0 -20 -7 -20 -20z"/>
<path d="M2450 1000 c0 -13 7 -20 20 -20 13 0 20 7 20 20 0 13 -7 20 -20 20
-13 0 -20 -7 -20 -20z"/>
<path d="M2550 1000 c0 -13 7 -20 20 -20 13 0 20 7 20 20 0 13 -7 20 -20 20
-13 0 -20 -7 -20 -20z"/>
<path d="M2940 1000 c0 -13 7 -20 20 -20 13 0 20 7 20 20 0 13 -7 20 -20 20
-13 0 -20 -7 -20 -20z"/>
<path d="M150 955 c0 -18 5 -25 20 -25 15 0 20 7 20 25 0 18 -5 25 -20 25 -15
0 -20 -7 -20 -25z"/>
<path d="M250 955 c0 -18 5 -25 20 -25 15 0 20 7 20 25 0 18 -5 25 -20 25 -15
0 -20 -7 -20 -25z"/>
<path d="M540 955 c0 -19 5 -25 23 -25 20 1 21 2 5 14 -18 14 -25 32 -9 21 5
-3 12 -1 16 5 3 5 -3 10 -14 10 -16 0 -21 -6 -21 -25z"/>
<path d="M2500 955 c0 -18 5 -25 20 -25 15 0 20 7 20 25 0 18 -5 25 -20 25
-15 0 -20 -7 -20 -25z"/>
<path d="M2890 955 c0 -18 5 -25 20 -25 15 0 20 7 20 25 0 18 -5 25 -20 25
-15 0 -20 -7 -20 -25z"/>
<path d="M100 907 c0 -16 6 -23 20 -23 14 0 20 7 20 23 0 16 -6 23 -20 23 -14
0 -20 -7 -20 -23z"/>
<path d="M200 910 c0 -13 7 -20 20 -20 13 0 20 7 20 20 0 13 -7 20 -20 20 -13
0 -20 -7 -20 -20z"/>
<path d="M300 910 c0 -13 7 -20 20 -20 13 0 20 7 20 20 0 13 -7 20 -20 20 -13
0 -20 -7 -20 -20z"/>
<path d="M2450 911 c0 -10 9 -21 20 -24 16 -4 20 0 20 19 0 17 -6 24 -20 24
-13 0 -20 -7 -20 -19z"/>
<path d="M2550 910 c0 -13 7 -20 20 -20 13 0 20 7 20 20 0 13 -7 20 -20 20
-13 0 -20 -7 -20 -20z"/>
<path d="M2840 906 c0 -19 4 -23 20 -19 11 3 20 14 20 24 0 12 -7 19 -20 19
-14 0 -20 -7 -20 -24z"/>
<path d="M2940 910 c0 -13 7 -20 20 -20 13 0 20 7 20 20 0 13 -7 20 -20 20
-13 0 -20 -7 -20 -20z"/>
<path d="M50 860 c0 -13 7 -20 20 -20 13 0 20 7 20 20 0 13 -7 20 -20 20 -13
0 -20 -7 -20 -20z"/>
<path d="M150 860 c0 -13 7 -20 20 -20 13 0 20 7 20 20 0 13 -7 20 -20 20 -13
0 -20 -7 -20 -20z"/>
<path d="M250 860 c0 -13 7 -20 20 -20 13 0 20 7 20 20 0 13 -7 20 -20 20 -13
0 -20 -7 -20 -20z"/>
<path d="M350 860 c0 -13 7 -20 20 -20 13 0 20 7 20 20 0 13 -7 20 -20 20 -13
0 -20 -7 -20 -20z"/>
<path d="M440 860 c0 -15 7 -20 25 -20 18 0 25 5 25 20 0 15 -7 20 -25 20 -18
0 -25 -5 -25 -20z"/>
<path d="M540 860 c0 -12 7 -20 16 -20 10 0 14 6 11 14 -3 8 -1 17 6 20 7 2 2
5 -10 5 -17 1 -23 -5 -23 -19z"/>
<path d="M2500 860 c0 -13 7 -20 20 -20 13 0 20 7 20 20 0 13 -7 20 -20 20
-13 0 -20 -7 -20 -20z"/>
<path d="M2600 860 c0 -13 7 -20 20 -20 13 0 20 7 20 20 0 13 -7 20 -20 20
-13 0 -20 -7 -20 -20z"/>
<path d="M2790 860 c0 -13 7 -20 20 -20 13 0 20 7 20 20 0 13 -7 20 -20 20
-13 0 -20 -7 -20 -20z"/>
<path d="M2890 860 c0 -13 7 -20 20 -20 13 0 20 7 20 20 0 13 -7 20 -20 20
-13 0 -20 -7 -20 -20z"/>
<path d="M100 810 c0 -13 7 -20 20 -20 13 0 20 7 20 20 0 13 -7 20 -20 20 -13
0 -20 -7 -20 -20z"/>
<path d="M200 810 c0 -13 7 -20 20 -20 13 0 20 7 20 20 0 13 -7 20 -20 20 -13
0 -20 -7 -20 -20z"/>
<path d="M300 810 c0 -13 7 -20 20 -20 13 0 20 7 20 20 0 13 -7 20 -20 20 -13
0 -20 -7 -20 -20z"/>
<path d="M390 810 c0 -15 7 -20 25 -20 18 0 25 5 25 20 0 15 -7 20 -25 20 -18
0 -25 -5 -25 -20z"/>
<path d="M490 810 c0 -14 7 -20 24 -20 19 0 23 4 19 20 -3 11 -14 20 -24 20
-12 0 -19 -7 -19 -20z"/>
<path d="M2450 810 c0 -13 7 -20 20 -20 13 0 20 7 20 20 0 13 -7 20 -20 20
-13 0 -20 -7 -20 -20z"/>
<path d="M2550 810 c0 -13 7 -20 20 -20 13 0 20 7 20 20 0 13 -7 20 -20 20
-13 0 -20 -7 -20 -20z"/>
<path d="M2640 810 c0 -15 7 -20 25 -20 18 0 25 5 25 20 0 15 -7 20 -25 20
-18 0 -25 -5 -25 -20z"/>
<path d="M2740 810 c0 -15 7 -20 24 -20 19 0 24 5 23 20 -1 14 -8 20 -24 20
-16 0 -23 -6 -23 -20z"/>
<path d="M2840 810 c0 -13 7 -20 20 -20 13 0 20 7 20 20 0 13 -7 20 -20 20
-13 0 -20 -7 -20 -20z"/>
<path d="M2940 810 c0 -13 7 -20 20 -20 13 0 20 7 20 20 0 13 -7 20 -20 20
-13 0 -20 -7 -20 -20z"/>
<path d="M50 760 c0 -13 7 -20 18 -20 24 0 32 8 25 26 -8 22 -43 17 -43 -6z"/>
<path d="M150 760 c0 -13 7 -20 20 -20 13 0 20 7 20 20 0 13 -7 20 -20 20 -13
0 -20 -7 -20 -20z"/>
<path d="M250 760 c0 -13 7 -20 20 -20 13 0 20 7 20 20 0 13 -7 20 -20 20 -13
0 -20 -7 -20 -20z"/>
<path d="M353 760 c-1 -14 4 -20 18 -20 12 0 19 7 19 20 0 13 -7 20 -18 20
-11 0 -18 -8 -19 -20z"/>
<path d="M440 760 c0 -15 7 -20 25 -20 18 0 25 5 25 20 0 15 -7 20 -25 20 -18
0 -25 -5 -25 -20z"/>
<path d="M540 760 c0 -13 7 -20 20 -20 11 0 20 5 20 11 0 5 -6 7 -12 3 -9 -5
-9 -2 1 9 12 15 11 17 -8 17 -14 0 -21 -6 -21 -20z"/>
<path d="M2500 760 c0 -13 7 -20 20 -20 13 0 20 7 20 20 0 13 -7 20 -20 20
-13 0 -20 -7 -20 -20z"/>
<path d="M2603 760 c-1 -14 4 -20 18 -20 12 0 19 7 19 20 0 13 -7 20 -18 20
-11 0 -18 -8 -19 -20z"/>
<path d="M2690 760 c0 -15 7 -20 25 -20 18 0 25 5 25 20 0 15 -7 20 -25 20
-18 0 -25 -5 -25 -20z"/>
<path d="M2790 760 c0 -13 7 -20 20 -20 13 0 20 7 20 20 0 13 -7 20 -20 20
-13 0 -20 -7 -20 -20z"/>
<path d="M2890 760 c0 -13 7 -20 20 -20 13 0 20 7 20 20 0 13 -7 20 -20 20
-13 0 -20 -7 -20 -20z"/>
<path d="M100 710 c0 -13 7 -20 20 -20 13 0 20 7 20 20 0 13 -7 20 -20 20 -13
0 -20 -7 -20 -20z"/>
<path d="M200 710 c0 -13 7 -20 20 -20 13 0 20 7 20 20 0 13 -7 20 -20 20 -13
0 -20 -7 -20 -20z"/>
<path d="M300 710 c0 -13 7 -20 20 -20 13 0 20 7 20 20 0 13 -7 20 -20 20 -13
0 -20 -7 -20 -20z"/>
<path d="M390 710 c0 -15 7 -20 25 -20 18 0 25 5 25 20 0 15 -7 20 -25 20 -18
0 -25 -5 -25 -20z"/>
<path d="M490 710 c0 -13 7 -20 20 -20 13 0 20 7 20 20 0 13 -7 20 -20 20 -13
0 -20 -7 -20 -20z"/>
<path d="M2450 710 c0 -13 7 -20 20 -20 13 0 20 7 20 20 0 13 -7 20 -20 20
-13 0 -20 -7 -20 -20z"/>
<path d="M2550 710 c0 -13 7 -20 20 -20 13 0 20 7 20 20 0 13 -7 20 -20 20
-13 0 -20 -7 -20 -20z"/>
<path d="M2640 710 c0 -15 7 -20 25 -20 18 0 25 5 25 20 0 15 -7 20 -25 20
-18 0 -25 -5 -25 -20z"/>
<path d="M2740 710 c0 -14 7 -20 24 -20 19 0 23 4 19 20 -3 11 -14 20 -24 20
-12 0 -19 -7 -19 -20z"/>
<path d="M2840 710 c0 -13 7 -20 20 -20 13 0 20 7 20 20 0 13 -7 20 -20 20
-13 0 -20 -7 -20 -20z"/>
<path d="M2940 710 c0 -13 7 -20 20 -20 13 0 20 7 20 20 0 13 -7 20 -20 20
-13 0 -20 -7 -20 -20z"/>
<path d="M50 660 c0 -13 7 -20 20 -20 13 0 20 7 20 20 0 13 -7 20 -20 20 -13
0 -20 -7 -20 -20z"/>
<path d="M150 660 c0 -13 7 -20 20 -20 13 0 20 7 20 20 0 13 -7 20 -20 20 -13
0 -20 -7 -20 -20z"/>
<path d="M250 660 c0 -13 7 -20 20 -20 13 0 20 7 20 20 0 13 -7 20 -20 20 -13
0 -20 -7 -20 -20z"/>
<path d="M350 660 c0 -13 7 -20 20 -20 13 0 20 7 20 20 0 13 -7 20 -20 20 -13
0 -20 -7 -20 -20z"/>
<path d="M438 658 c-2 -15 -11 -24 -25 -26 -15 -2 -23 -10 -23 -23 0 -12 -7
-19 -20 -19 -30 0 -28 -47 3 -52 14 -2 22 -10 22 -23 0 -13 8 -21 23 -23 14
-2 22 -10 22 -23 0 -14 7 -19 25 -19 18 0 25 5 25 20 0 18 10 24 31 22 4 -1
10 10 13 23 4 16 13 25 26 25 15 0 20 7 20 25 0 18 -5 25 -19 25 -21 0 -45 23
-34 33 3 4 -3 7 -15 7 -15 0 -22 -6 -22 -20 0 -15 -7 -20 -25 -20 -20 0 -25 5
-25 25 0 20 5 25 25 25 18 0 25 5 25 20 0 30 -47 28 -52 -2z m2 -93 c0 -20 -5
-25 -25 -25 -20 0 -25 5 -25 25 0 20 5 25 25 25 20 0 25 -5 25 -25z m100 0 c0
-20 -5 -25 -25 -25 -20 0 -25 5 -25 25 0 20 5 25 25 25 20 0 25 -5 25 -25z
m-50 -50 c0 -20 -5 -25 -25 -25 -20 0 -25 5 -25 25 0 20 5 25 25 25 20 0 25
-5 25 -25z"/>
<path d="M540 660 c0 -13 7 -20 20 -20 13 0 20 7 20 20 0 13 -7 20 -20 20 -13
0 -20 -7 -20 -20z"/>
<path d="M2500 660 c0 -13 7 -20 20 -20 13 0 20 7 20 20 0 13 -7 20 -20 20
-13 0 -20 -7 -20 -20z"/>
<path d="M2600 660 c0 -13 7 -20 20 -20 13 0 20 7 20 20 0 13 -7 20 -20 20
-13 0 -20 -7 -20 -20z"/>
<path d="M2690 660 c0 -15 7 -20 25 -20 18 0 25 5 25 20 0 15 -7 20 -25 20
-18 0 -25 -5 -25 -20z"/>
<path d="M2790 660 c0 -13 7 -20 20 -20 13 0 20 7 20 20 0 13 -7 20 -20 20
-13 0 -20 -7 -20 -20z"/>
<path d="M2890 660 c0 -13 7 -20 20 -20 13 0 20 7 20 20 0 13 -7 20 -20 20
-13 0 -20 -7 -20 -20z"/>
<path d="M30 616 c0 -8 -8 -17 -17 -19 -11 -3 -7 -5 10 -6 22 -1 27 -6 27 -26
0 -20 -5 -25 -27 -26 l-28 0 25 -10 c20 -8 22 -12 10 -19 -13 -8 -12 -10 3
-10 10 0 17 8 17 20 0 15 7 20 25 20 20 0 25 -5 25 -25 0 -18 5 -25 20 -25 30
0 28 47 -2 52 -15 2 -24 11 -26 26 -2 14 -10 22 -23 22 -12 0 -19 7 -19 20 0
11 -4 20 -10 20 -5 0 -10 -6 -10 -14z"/>
<path d="M100 610 c0 -13 7 -20 20 -20 13 0 20 7 20 20 0 13 -7 20 -20 20 -13
0 -20 -7 -20 -20z"/>
<path d="M200 610 c0 -13 7 -20 20 -20 13 0 20 7 20 20 0 13 -7 20 -20 20 -13
0 -20 -7 -20 -20z"/>
<path d="M300 610 c0 -13 7 -20 20 -20 13 0 20 7 20 20 0 13 -7 20 -20 20 -13
0 -20 -7 -20 -20z"/>
<path d="M2450 610 c0 -13 7 -20 20 -20 13 0 20 7 20 20 0 13 -7 20 -20 20
-13 0 -20 -7 -20 -20z"/>
<path d="M2550 610 c0 -13 7 -20 20 -20 13 0 20 7 20 20 0 13 -7 20 -20 20
-13 0 -20 -7 -20 -20z"/>
<path d="M2640 610 c0 -13 -7 -20 -20 -20 -15 0 -20 -7 -20 -25 0 -18 5 -25
19 -25 13 0 21 -8 23 -22 2 -13 9 -24 16 -24 6 -1 17 -2 22 -3 6 0 10 -10 10
-21 0 -15 7 -20 25 -20 18 0 25 5 25 20 0 11 5 21 10 21 6 1 16 2 22 3 7 0 13
10 13 21 0 13 8 21 23 23 31 5 32 52 1 52 -12 0 -23 8 -26 20 -3 11 -14 20
-24 20 -12 0 -19 -7 -19 -20 0 -15 7 -20 25 -20 20 0 25 -5 25 -25 0 -34 -47
-37 -52 -2 -2 14 -11 23 -25 25 -15 2 -23 10 -23 23 0 14 -7 19 -25 19 -18 0
-25 -5 -25 -20z m50 -45 c0 -20 -5 -25 -25 -25 -20 0 -25 5 -25 25 0 20 5 25
25 25 20 0 25 -5 25 -25z m50 -50 c0 -20 -5 -25 -25 -25 -20 0 -25 5 -25 25 0
20 5 25 25 25 20 0 25 -5 25 -25z"/>
<path d="M2840 610 c0 -13 7 -20 20 -20 13 0 20 7 20 20 0 13 -7 20 -20 20
-13 0 -20 -7 -20 -20z"/>
<path d="M2940 610 c0 -13 7 -20 20 -20 13 0 20 7 20 20 0 13 -7 20 -20 20
-13 0 -20 -7 -20 -20z"/>
<path d="M150 565 c0 -18 5 -25 20 -25 15 0 20 7 20 25 0 18 -5 25 -20 25 -15
0 -20 -7 -20 -25z"/>
<path d="M250 565 c0 -18 5 -25 20 -25 15 0 20 7 20 25 0 18 -5 25 -20 25 -15
0 -20 -7 -20 -25z"/>
<path d="M2400 565 c0 -18 5 -25 20 -25 15 0 20 7 20 25 0 18 -5 25 -20 25
-15 0 -20 -7 -20 -25z"/>
<path d="M2500 565 c0 -18 5 -25 20 -25 15 0 20 7 20 25 0 18 -5 25 -20 25
-15 0 -20 -7 -20 -25z"/>
<path d="M2890 565 c0 -18 5 -25 20 -25 15 0 20 7 20 25 0 18 -5 25 -20 25
-15 0 -20 -7 -20 -25z"/>
<path d="M200 515 c0 -18 5 -25 20 -25 15 0 20 7 20 25 0 18 -5 25 -20 25 -15
0 -20 -7 -20 -25z"/>
<path d="M300 517 c0 -16 6 -23 20 -24 15 -1 20 4 20 23 0 17 -5 24 -20 24
-14 0 -20 -7 -20 -23z"/>
<path d="M590 515 c0 -18 5 -25 20 -25 15 0 20 7 20 25 0 18 -5 25 -20 25 -15
0 -20 -7 -20 -25z"/>
<path d="M2356 524 c-10 -25 -7 -30 14 -31 15 -1 20 4 20 23 0 27 -24 33 -34
8z"/>
<path d="M2450 515 c0 -18 5 -25 20 -25 15 0 20 7 20 25 0 18 -5 25 -20 25
-15 0 -20 -7 -20 -25z"/>
<path d="M2550 517 c0 -16 6 -23 20 -24 15 -1 20 4 20 23 0 17 -5 24 -20 24
-14 0 -20 -7 -20 -23z"/>
<path d="M2840 515 c0 -18 5 -25 20 -25 15 0 20 7 20 25 0 18 -5 25 -20 25
-15 0 -20 -7 -20 -25z"/>
<path d="M2940 515 c0 -18 5 -25 20 -25 15 0 20 7 20 25 0 18 -5 25 -20 25
-15 0 -20 -7 -20 -25z"/>
<path d="M50 470 c0 -13 7 -20 20 -20 13 0 20 7 20 20 0 13 -7 20 -20 20 -13
0 -20 -7 -20 -20z"/>
<path d="M150 470 c0 -13 7 -20 20 -20 13 0 20 7 20 20 0 13 -7 20 -20 20 -13
0 -20 -7 -20 -20z"/>
<path d="M250 470 c0 -13 7 -20 20 -20 13 0 20 7 20 20 0 13 -7 20 -20 20 -13
0 -20 -7 -20 -20z"/>
<path d="M350 470 c0 -13 7 -20 20 -20 13 0 20 7 20 20 0 13 -7 20 -20 20 -13
0 -20 -7 -20 -20z"/>
<path d="M540 470 c0 -13 7 -20 20 -20 13 0 20 7 20 20 0 13 -7 20 -20 20 -13
0 -20 -7 -20 -20z"/>
<path d="M2400 470 c0 -13 7 -20 20 -20 13 0 20 7 20 20 0 13 -7 20 -20 20
-13 0 -20 -7 -20 -20z"/>
<path d="M2500 470 c0 -13 7 -20 20 -20 13 0 20 7 20 20 0 13 -7 20 -20 20
-13 0 -20 -7 -20 -20z"/>
<path d="M2600 470 c0 -13 7 -20 20 -20 13 0 20 7 20 20 0 13 -7 20 -20 20
-13 0 -20 -7 -20 -20z"/>
<path d="M2790 470 c0 -13 7 -20 20 -20 13 0 20 7 20 20 0 13 -7 20 -20 20
-13 0 -20 -7 -20 -20z"/>
<path d="M2890 470 c0 -13 7 -20 20 -20 13 0 20 7 20 20 0 13 -7 20 -20 20
-13 0 -20 -7 -20 -20z"/>
<path d="M19 431 c7 -5 10 -14 7 -20 -4 -6 0 -11 8 -11 9 0 16 9 16 20 0 14
-7 20 -22 20 -17 0 -19 -3 -9 -9z"/>
<path d="M100 420 c0 -13 7 -20 20 -20 13 0 20 7 20 20 0 13 -7 20 -20 20 -13
0 -20 -7 -20 -20z"/>
<path d="M200 420 c0 -13 7 -20 20 -20 13 0 20 7 20 20 0 13 -7 20 -20 20 -13
0 -20 -7 -20 -20z"/>
<path d="M300 420 c0 -13 7 -20 20 -20 13 0 20 7 20 20 0 13 -7 20 -20 20 -13
0 -20 -7 -20 -20z"/>
<path d="M390 420 c0 -15 7 -20 25 -20 18 0 25 5 25 20 0 15 -7 20 -25 20 -18
0 -25 -5 -25 -20z"/>
<path d="M490 420 c0 -13 7 -20 19 -20 10 0 21 9 24 20 4 16 0 20 -19 20 -17
0 -24 -6 -24 -20z"/>
<path d="M590 420 c0 -13 7 -20 20 -20 13 0 20 7 20 20 0 13 -7 20 -20 20 -13
0 -20 -7 -20 -20z"/>
<path d="M2350 420 c0 -13 7 -20 20 -20 13 0 20 7 20 20 0 13 -7 20 -20 20
-13 0 -20 -7 -20 -20z"/>
<path d="M2450 420 c0 -13 7 -20 20 -20 13 0 20 7 20 20 0 13 -7 20 -20 20
-13 0 -20 -7 -20 -20z"/>
<path d="M2550 420 c0 -13 7 -20 20 -20 13 0 20 7 20 20 0 13 -7 20 -20 20
-13 0 -20 -7 -20 -20z"/>
<path d="M2640 420 c0 -15 7 -20 25 -20 18 0 25 5 25 20 0 15 -7 20 -25 20
-18 0 -25 -5 -25 -20z"/>
<path d="M2740 420 c0 -13 7 -20 19 -20 10 0 21 9 24 20 4 16 0 20 -19 20 -17
0 -24 -6 -24 -20z"/>
<path d="M2840 420 c0 -13 7 -20 20 -20 13 0 20 7 20 20 0 13 -7 20 -20 20
-13 0 -20 -7 -20 -20z"/>
<path d="M2940 420 c0 -13 7 -20 20 -20 13 0 20 7 20 20 0 13 -7 20 -20 20
-13 0 -20 -7 -20 -20z"/>
<path d="M50 370 c0 -14 7 -20 24 -20 19 0 23 4 19 20 -3 11 -14 20 -24 20
-12 0 -19 -7 -19 -20z"/>
<path d="M150 370 c0 -13 7 -20 20 -20 13 0 20 7 20 20 0 13 -7 20 -20 20 -13
0 -20 -7 -20 -20z"/>
<path d="M250 370 c0 -13 7 -20 20 -20 13 0 20 7 20 20 0 13 -7 20 -20 20 -13
0 -20 -7 -20 -20z"/>
<path d="M350 370 c0 -13 7 -20 20 -20 13 0 20 7 20 20 0 13 -7 20 -20 20 -13
0 -20 -7 -20 -20z"/>
<path d="M440 370 c0 -15 7 -20 25 -20 18 0 25 5 25 20 0 15 -7 20 -25 20 -18
0 -25 -5 -25 -20z"/>
<path d="M540 370 c0 -13 7 -20 20 -20 13 0 20 7 20 20 0 13 -7 20 -20 20 -13
0 -20 -7 -20 -20z"/>
<path d="M640 370 c0 -13 7 -20 20 -20 13 0 20 7 20 20 0 13 -7 20 -20 20 -13
0 -20 -7 -20 -20z"/>
<path d="M2300 370 c0 -13 7 -20 20 -20 13 0 20 7 20 20 0 13 -7 20 -20 20
-13 0 -20 -7 -20 -20z"/>
<path d="M2400 370 c0 -13 7 -20 20 -20 13 0 20 7 20 20 0 13 -7 20 -20 20
-13 0 -20 -7 -20 -20z"/>
<path d="M2500 370 c0 -13 7 -20 20 -20 13 0 20 7 20 20 0 13 -7 20 -20 20
-13 0 -20 -7 -20 -20z"/>
<path d="M2600 370 c0 -13 7 -20 20 -20 13 0 20 7 20 20 0 13 -7 20 -20 20
-13 0 -20 -7 -20 -20z"/>
<path d="M2690 370 c0 -15 7 -20 25 -20 18 0 25 5 25 20 0 15 -7 20 -25 20
-18 0 -25 -5 -25 -20z"/>
<path d="M2790 370 c0 -13 7 -20 20 -20 13 0 20 7 20 20 0 13 -7 20 -20 20
-13 0 -20 -7 -20 -20z"/>
<path d="M2890 370 c0 -13 7 -20 20 -20 13 0 20 7 20 20 0 13 -7 20 -20 20
-13 0 -20 -7 -20 -20z"/>
<path d="M100 320 c0 -13 7 -20 20 -20 13 0 20 7 20 20 0 13 -7 20 -20 20 -13
0 -20 -7 -20 -20z"/>
<path d="M200 320 c0 -13 7 -20 20 -20 13 0 20 7 20 20 0 13 -7 20 -20 20 -13
0 -20 -7 -20 -20z"/>
<path d="M300 320 c0 -13 7 -20 20 -20 13 0 20 7 20 20 0 13 -7 20 -20 20 -13
0 -20 -7 -20 -20z"/>
<path d="M390 320 c0 -15 7 -20 25 -20 18 0 25 5 25 20 0 15 -7 20 -25 20 -18
0 -25 -5 -25 -20z"/>
<path d="M490 320 c0 -14 7 -20 24 -20 19 0 23 4 19 20 -3 11 -14 20 -24 20
-12 0 -19 -7 -19 -20z"/>
<path d="M590 320 c0 -13 7 -20 20 -20 13 0 20 7 20 20 0 13 -7 20 -20 20 -13
0 -20 -7 -20 -20z"/>
<path d="M690 320 c0 -13 7 -20 20 -20 13 0 20 7 20 20 0 13 -7 20 -20 20 -13
0 -20 -7 -20 -20z"/>
<path d="M2250 320 c0 -15 7 -20 25 -20 18 0 25 5 25 20 0 15 -7 20 -25 20
-18 0 -25 -5 -25 -20z"/>
<path d="M2350 320 c0 -13 7 -20 20 -20 13 0 20 7 20 20 0 13 -7 20 -20 20
-13 0 -20 -7 -20 -20z"/>
<path d="M2450 320 c0 -13 7 -20 20 -20 13 0 20 7 20 20 0 13 -7 20 -20 20
-13 0 -20 -7 -20 -20z"/>
<path d="M2550 320 c0 -13 7 -20 20 -20 13 0 20 7 20 20 0 13 -7 20 -20 20
-13 0 -20 -7 -20 -20z"/>
<path d="M2640 320 c0 -15 7 -20 25 -20 18 0 25 5 25 20 0 15 -7 20 -25 20
-18 0 -25 -5 -25 -20z"/>
<path d="M2740 320 c0 -14 7 -20 24 -20 19 0 23 4 19 20 -3 11 -14 20 -24 20
-12 0 -19 -7 -19 -20z"/>
<path d="M2840 320 c0 -13 7 -20 20 -20 13 0 20 7 20 20 0 13 -7 20 -20 20
-13 0 -20 -7 -20 -20z"/>
<path d="M2940 320 c0 -13 7 -20 20 -20 13 0 20 7 20 20 0 13 -7 20 -20 20
-13 0 -20 -7 -20 -20z"/>
<path d="M50 270 c0 -13 7 -20 20 -20 13 0 20 7 20 20 0 13 -7 20 -20 20 -13
0 -20 -7 -20 -20z"/>
<path d="M150 270 c0 -13 7 -20 20 -20 13 0 20 7 20 20 0 13 -7 20 -20 20 -13
0 -20 -7 -20 -20z"/>
<path d="M250 270 c0 -13 7 -20 20 -20 13 0 20 7 20 20 0 13 -7 20 -20 20 -13
0 -20 -7 -20 -20z"/>
<path d="M350 270 c0 -13 7 -20 20 -20 13 0 20 7 20 20 0 13 -7 20 -20 20 -13
0 -20 -7 -20 -20z"/>
<path d="M440 270 c0 -15 7 -20 25 -20 18 0 25 5 25 20 0 15 -7 20 -25 20 -18
0 -25 -5 -25 -20z"/>
<path d="M540 270 c0 -13 7 -20 20 -20 13 0 20 7 20 20 0 13 -7 20 -20 20 -13
0 -20 -7 -20 -20z"/>
<path d="M640 270 c0 -13 7 -20 20 -20 13 0 20 7 20 20 0 13 -7 20 -20 20 -13
0 -20 -7 -20 -20z"/>
<path d="M740 270 c0 -13 7 -20 20 -20 13 0 20 7 20 20 0 13 -7 20 -20 20 -13
0 -20 -7 -20 -20z"/>
<path d="M2218 283 c6 -2 12 -9 12 -14 0 -6 -4 -8 -9 -4 -5 3 -12 1 -16 -5 -4
-6 5 -10 19 -10 19 0 26 5 26 20 0 14 -6 20 -22 19 -13 0 -17 -3 -10 -6z"/>
<path d="M2300 270 c0 -13 7 -20 20 -20 11 0 20 5 20 10 0 6 -6 10 -12 10 -9
0 -8 4 2 10 12 8 11 10 -7 10 -16 0 -23 -6 -23 -20z"/>
<path d="M2400 270 c0 -13 7 -20 20 -20 13 0 20 7 20 20 0 13 -7 20 -20 20
-13 0 -20 -7 -20 -20z"/>
<path d="M2500 270 c0 -13 7 -20 20 -20 13 0 20 7 20 20 0 13 -7 20 -20 20
-13 0 -20 -7 -20 -20z"/>
<path d="M2600 270 c0 -13 7 -20 20 -20 13 0 20 7 20 20 0 13 -7 20 -20 20
-13 0 -20 -7 -20 -20z"/>
<path d="M2690 270 c0 -15 7 -20 25 -20 18 0 25 5 25 20 0 15 -7 20 -25 20
-18 0 -25 -5 -25 -20z"/>
<path d="M2790 270 c0 -13 7 -20 20 -20 13 0 20 7 20 20 0 13 -7 20 -20 20
-13 0 -20 -7 -20 -20z"/>
<path d="M2890 270 c0 -13 7 -20 20 -20 13 0 20 7 20 20 0 13 -7 20 -20 20
-13 0 -20 -7 -20 -20z"/>
<path d="M35 230 c3 -6 -4 -14 -17 -19 -23 -10 -22 -10 5 -10 22 -1 27 -6 27
-26 0 -20 -5 -25 -27 -26 -19 -1 -22 -3 -10 -6 13 -3 17 -11 14 -24 -3 -13 -1
-19 6 -16 7 2 13 13 15 25 2 14 11 22 23 22 13 0 19 7 19 24 0 17 -5 23 -17
22 -12 0 -19 7 -21 22 -2 12 -8 22 -13 22 -6 0 -7 -5 -4 -10z"/>
<path d="M100 220 c0 -13 7 -20 20 -20 13 0 20 7 20 20 0 13 -7 20 -20 20 -13
0 -20 -7 -20 -20z"/>
<path d="M200 220 c0 -13 7 -20 20 -20 13 0 20 7 20 20 0 13 -7 20 -20 20 -13
0 -20 -7 -20 -20z"/>
<path d="M300 220 c0 -13 7 -20 20 -20 13 0 20 7 20 20 0 13 -7 20 -20 20 -13
0 -20 -7 -20 -20z"/>
<path d="M390 220 c0 -13 -7 -20 -20 -20 -15 0 -20 -7 -20 -25 0 -18 5 -25 20
-25 15 0 20 -7 20 -25 0 -18 -5 -25 -20 -25 -13 0 -20 -7 -20 -20 0 -13 7 -20
20 -20 13 0 20 7 20 20 0 15 7 20 25 20 19 0 25 -5 25 -21 0 -18 2 -19 15 -9
10 9 15 9 15 1 0 -6 5 -11 10 -11 6 0 9 3 9 8 -4 21 3 32 20 32 10 0 21 9 24
19 6 23 0 31 -24 31 -11 0 -19 9 -21 23 -2 14 -11 23 -25 25 -15 2 -23 10 -23
23 0 14 -7 19 -25 19 -18 0 -25 -5 -25 -20z m50 -45 c0 -20 -5 -25 -25 -25
-20 0 -25 5 -25 25 0 20 5 25 25 25 20 0 25 -5 25 -25z m50 -50 c0 -20 -5 -25
-25 -25 -20 0 -25 5 -25 25 0 20 5 25 25 25 20 0 25 -5 25 -25z"/>
<path d="M490 220 c0 -15 7 -20 25 -20 20 0 25 -5 25 -25 0 -18 5 -25 20 -25
15 0 20 7 20 25 0 19 -5 25 -21 25 -12 0 -23 8 -26 20 -3 11 -14 20 -24 20
-12 0 -19 -7 -19 -20z"/>
<path d="M590 220 c0 -13 7 -20 20 -20 13 0 20 7 20 20 0 13 -7 20 -20 20 -13
0 -20 -7 -20 -20z"/>
<path d="M690 220 c0 -13 7 -20 20 -20 13 0 20 7 20 20 0 13 -7 20 -20 20 -13
0 -20 -7 -20 -20z"/>
<path d="M790 220 c0 -13 7 -20 20 -20 13 0 20 7 20 20 0 13 -7 20 -20 20 -13
0 -20 -7 -20 -20z"/>
<path d="M2166 224 c-9 -23 -8 -24 14 -24 13 0 20 7 20 20 0 24 -25 27 -34 4z"/>
<path d="M2250 221 c0 -13 -8 -21 -22 -23 -15 -2 -24 -11 -26 -25 -2 -15 -10
-23 -23 -23 -14 0 -19 -7 -19 -25 0 -18 5 -25 20 -25 13 0 20 -7 20 -20 0 -22
15 -27 23 -7 4 10 6 10 6 0 2 -21 21 -14 21 7 0 15 7 20 25 20 18 0 25 -5 25
-20 0 -13 7 -20 20 -20 13 0 20 7 20 20 0 13 -7 20 -20 20 -15 0 -20 7 -20 25
0 18 5 25 20 25 15 0 20 7 20 25 0 14 -3 24 -7 24 -23 -4 -33 3 -33 21 0 15
-7 20 -25 20 -18 0 -25 -5 -25 -19z m50 -46 c0 -20 -5 -25 -25 -25 -20 0 -25
5 -25 25 0 20 5 25 25 25 20 0 25 -5 25 -25z m-50 -50 c0 -20 -5 -25 -25 -25
-20 0 -25 5 -25 25 0 20 5 25 25 25 20 0 25 -5 25 -25z"/>
<path d="M2350 220 c0 -13 7 -20 20 -20 13 0 20 7 20 20 0 13 -7 20 -20 20
-13 0 -20 -7 -20 -20z"/>
<path d="M2450 220 c0 -13 7 -20 20 -20 13 0 20 7 20 20 0 13 -7 20 -20 20
-13 0 -20 -7 -20 -20z"/>
<path d="M2550 220 c0 -13 7 -20 20 -20 13 0 20 7 20 20 0 13 -7 20 -20 20
-13 0 -20 -7 -20 -20z"/>
<path d="M2640 220 c0 -13 -7 -20 -20 -20 -15 0 -20 -7 -20 -25 0 -18 5 -25
19 -25 11 0 22 -4 25 -9 10 -16 -5 -41 -25 -41 -13 0 -19 -7 -19 -22 0 -19 2
-20 10 -8 6 10 10 11 10 3 0 -7 5 -13 10 -13 6 0 10 9 10 20 0 15 7 20 25 20
18 0 25 -5 25 -19 0 -13 7 -18 25 -18 18 0 25 5 25 18 0 12 7 19 20 19 15 0
20 7 20 25 0 18 -5 25 -19 25 -13 0 -21 8 -23 23 -2 12 -9 23 -15 23 -7 1 -17
2 -23 3 -5 0 -10 10 -10 21 0 15 -7 20 -25 20 -18 0 -25 -5 -25 -20z m50 -45
c0 -20 -5 -25 -25 -25 -20 0 -25 5 -25 25 0 20 5 25 25 25 20 0 25 -5 25 -25z
m50 -50 c0 -20 -5 -25 -25 -25 -20 0 -25 5 -25 25 0 20 5 25 25 25 20 0 25 -5
25 -25z"/>
<path d="M2740 220 c0 -15 7 -20 25 -20 20 0 25 -5 25 -25 0 -18 5 -25 20 -25
15 0 20 7 20 25 0 19 -5 25 -17 23 -11 -2 -22 6 -28 20 -12 28 -45 30 -45 2z"/>
<path d="M2840 220 c0 -13 7 -20 20 -20 13 0 20 7 20 20 0 13 -7 20 -20 20
-13 0 -20 -7 -20 -20z"/>
<path d="M2940 220 c0 -13 7 -20 20 -20 13 0 20 7 20 20 0 13 -7 20 -20 20
-13 0 -20 -7 -20 -20z"/>
<path d="M150 175 c0 -18 5 -25 20 -25 15 0 20 7 20 25 0 18 -5 25 -20 25 -15
0 -20 -7 -20 -25z"/>
<path d="M250 175 c0 -18 5 -25 20 -25 15 0 20 7 20 25 0 18 -5 25 -20 25 -15
0 -20 -7 -20 -25z"/>
<path d="M640 175 c0 -18 5 -25 20 -25 15 0 20 7 20 25 0 18 -5 25 -20 25 -15
0 -20 -7 -20 -25z"/>
<path d="M740 175 c0 -18 5 -25 20 -25 15 0 20 7 20 25 0 18 -5 25 -20 25 -15
0 -20 -7 -20 -25z"/>
<path d="M2128 193 c-25 -6 -23 -43 2 -43 15 0 20 7 20 25 0 14 -1 24 -2 24
-2 -1 -11 -3 -20 -6z"/>
<path d="M2400 175 c0 -18 5 -25 20 -25 15 0 20 7 20 25 0 18 -5 25 -20 25
-15 0 -20 -7 -20 -25z"/>
<path d="M2500 174 c0 -17 5 -24 20 -24 14 0 20 7 20 23 0 16 -6 23 -20 24
-15 1 -20 -4 -20 -23z"/>
<path d="M2890 175 c0 -18 5 -25 20 -25 15 0 20 7 20 25 0 18 -5 25 -20 25
-15 0 -20 -7 -20 -25z"/>
<path d="M830 170 c0 -13 -7 -20 -20 -20 -15 0 -20 -7 -20 -25 0 -18 5 -25 20
-25 13 0 20 -7 20 -19 0 -13 7 -18 25 -18 18 0 25 5 25 18 0 14 7 19 25 19 18
0 25 -5 25 -20 0 -25 20 -27 21 -2 0 15 1 15 8 -2 6 -17 8 -17 14 -4 7 20 0
28 -25 28 -13 0 -18 7 -18 25 0 20 -5 25 -25 25 -18 0 -25 5 -25 20 0 15 -7
20 -25 20 -18 0 -25 -5 -25 -20z m50 -45 c0 -20 -5 -25 -25 -25 -20 0 -25 5
-25 25 0 20 5 25 25 25 20 0 25 -5 25 -25z"/>
<path d="M100 126 c0 -19 5 -24 20 -23 14 1 20 8 20 24 0 16 -6 23 -20 23 -15
0 -20 -7 -20 -24z"/>
<path d="M200 125 c0 -18 5 -25 20 -25 15 0 20 7 20 25 0 18 -5 25 -20 25 -15
0 -20 -7 -20 -25z"/>
<path d="M300 125 c0 -18 5 -25 20 -25 15 0 20 7 20 25 0 18 -5 25 -20 25 -15
0 -20 -7 -20 -25z"/>
<path d="M590 125 c0 -18 5 -25 20 -25 15 0 20 7 20 25 0 18 -5 25 -20 25 -15
0 -20 -7 -20 -25z"/>
<path d="M690 125 c0 -18 5 -25 20 -25 15 0 20 7 20 25 0 18 -5 25 -20 25 -15
0 -20 -7 -20 -25z"/>
<path d="M2060 127 c0 -16 6 -23 20 -24 15 -1 20 4 20 23 0 17 -5 24 -20 24
-14 0 -20 -7 -20 -23z"/>
<path d="M2350 125 c0 -18 5 -25 20 -25 15 0 20 7 20 25 0 18 -5 25 -20 25
-15 0 -20 -7 -20 -25z"/>
<path d="M2450 125 c0 -18 5 -25 20 -25 15 0 20 7 20 25 0 18 -5 25 -20 25
-15 0 -20 -7 -20 -25z"/>
<path d="M2550 125 c0 -18 5 -25 20 -25 15 0 20 7 20 25 0 18 -5 25 -20 25
-15 0 -20 -7 -20 -25z"/>
<path d="M2840 125 c0 -18 5 -25 20 -25 15 0 20 7 20 25 0 18 -5 25 -20 25
-15 0 -20 -7 -20 -25z"/>
<path d="M2940 125 c0 -18 5 -25 20 -25 15 0 20 7 20 25 0 18 -5 25 -20 25
-15 0 -20 -7 -20 -25z"/>
<path d="M51 78 c1 -19 2 -19 6 -5 5 18 5 18 19 0 13 -17 13 -17 14 5 0 15 -6
22 -20 22 -14 0 -20 -6 -19 -22z"/>
<path d="M150 80 c0 -13 7 -20 20 -20 13 0 20 7 20 20 0 13 -7 20 -20 20 -13
0 -20 -7 -20 -20z"/>
<path d="M250 80 c0 -13 7 -20 20 -20 13 0 20 7 20 20 0 13 -7 20 -20 20 -13
0 -20 -7 -20 -20z"/>
<path d="M540 80 c0 -13 7 -20 20 -20 13 0 20 7 20 20 0 13 -7 20 -20 20 -13
0 -20 -7 -20 -20z"/>
<path d="M640 80 c0 -13 7 -20 20 -20 13 0 20 7 20 20 0 13 -7 20 -20 20 -13
0 -20 -7 -20 -20z"/>
<path d="M740 80 c0 -13 7 -20 20 -20 13 0 20 7 20 20 0 13 -7 20 -20 20 -13
0 -20 -7 -20 -20z"/>
<path d="M2010 80 c0 -13 7 -20 20 -20 13 0 20 7 20 20 0 13 -7 20 -20 20 -13
0 -20 -7 -20 -20z"/>
<path d="M2110 78 c0 -19 2 -20 10 -8 6 10 10 11 10 3 0 -7 5 -13 10 -13 6 0
10 9 10 20 0 13 -7 20 -20 20 -14 0 -20 -7 -20 -22z"/>
<path d="M2400 79 c0 -17 3 -19 14 -10 11 9 15 9 19 -1 3 -7 6 -3 6 10 1 16
-5 22 -19 22 -14 0 -20 -7 -20 -21z"/>
<path d="M2500 80 c0 -13 7 -20 20 -20 13 0 20 7 20 20 0 13 -7 20 -20 20 -13
0 -20 -7 -20 -20z"/>
<path d="M2790 80 c0 -13 7 -20 20 -20 13 0 20 7 20 20 0 13 -7 20 -20 20 -13
0 -20 -7 -20 -20z"/>
<path d="M2890 80 c0 -13 7 -20 20 -20 13 0 20 7 20 20 0 13 -7 20 -20 20 -13
0 -20 -7 -20 -20z"/>
<path d="M203 30 c1 -11 5 -20 10 -20 5 0 7 7 3 15 -3 8 -1 15 4 15 5 0 11 -8
13 -17 4 -14 5 -12 6 5 1 15 -5 22 -18 22 -14 0 -19 -6 -18 -20z"/>
<path d="M591 28 c0 -21 1 -22 8 -3 8 19 8 19 19 0 11 -19 11 -19 12 3 0 15
-6 22 -20 22 -14 0 -20 -6 -19 -22z"/>
<path d="M691 28 c0 -22 1 -22 9 -3 7 17 9 17 9 3 1 -25 21 -23 21 2 0 13 -7
20 -20 20 -14 0 -20 -6 -19 -22z"/>
<path d="M880 28 c0 -21 0 -21 15 -2 13 17 14 17 15 2 0 -25 20 -23 20 2 0 15
-7 20 -25 20 -19 0 -25 -5 -25 -22z"/>
<path d="M2250 30 c0 -25 20 -27 21 -2 0 14 2 14 9 -3 9 -21 9 -21 15 8 2 12
-3 17 -21 17 -17 0 -24 -6 -24 -20z"/>
<path d="M2350 28 c1 -22 1 -22 14 -5 11 14 15 15 19 5 4 -8 6 -7 6 5 1 11 -6
17 -19 17 -14 0 -20 -7 -20 -22z"/>
<path d="M2551 28 c1 -18 2 -19 6 -5 2 9 9 15 14 11 5 -3 7 -10 4 -15 -4 -5
-1 -9 4 -9 6 0 11 9 11 20 0 13 -7 20 -20 20 -14 0 -20 -6 -19 -22z"/>
<path d="M2645 39 c4 -6 14 -8 22 -5 11 4 13 2 9 -9 -3 -8 -1 -15 4 -15 6 0
10 9 10 20 0 15 -7 20 -26 20 -15 0 -23 -4 -19 -11z"/>
<path d="M2840 30 c0 -11 5 -20 11 -20 5 0 8 4 4 9 -3 5 -1 12 4 15 5 4 12 -2
14 -11 4 -14 5 -13 6 5 1 16 -5 22 -19 22 -13 0 -20 -7 -20 -20z"/>
<path d="M2940 30 c0 -11 5 -20 11 -20 5 0 7 5 4 10 -3 6 -2 10 4 10 5 0 12
-6 14 -12 3 -7 6 -3 6 10 1 16 -5 22 -19 22 -13 0 -20 -7 -20 -20z"/>
</g>
</svg>
